<?xml version="1.0" encoding="UTF-8" standalone="no"?>
<svg width="46px" height="58px" viewBox="0 0 46 58" version="1.1" xmlns="http://www.w3.org/2000/svg" xmlns:xlink="http://www.w3.org/1999/xlink">
    <!-- Generator: Sketch 40.1 (33804) - http://www.bohemiancoding.com/sketch -->
    <title>126 - Circuit Cycle (arrow, direction, orientation, Webby)</title>
    <desc>Created with Sketch.</desc>
    <defs></defs>
    <g id="Page-1" stroke="none" stroke-width="1" fill="none" fill-rule="evenodd">
        <g id="Icons" transform="translate(-608.000000, -719.000000)">
            <g id="126---Circuit-Cycle-(arrow,-direction,-orientation,-Webby)" transform="translate(609.000000, 720.000000)">
                <path d="M12,6 C12,9.314 9.314,12 6,12 C2.686,12 0,9.314 0,6 C0,2.686 2.686,0 6,0 C9.314,0 12,2.686 12,6 L12,6 Z" id="Fill-15" fill="#D0E8F9"></path>
                <path d="M12,6 C12,9.314 9.314,12 6,12 C2.686,12 0,9.314 0,6 C0,2.686 2.686,0 6,0 C9.314,0 12,2.686 12,6 L12,6 Z" id="Stroke-16" stroke="#0096E6" stroke-width="2"></path>
                <path d="M26,50 L20,44" id="Path" stroke="#0096E6" stroke-width="2" stroke-linecap="round"></path>
                <path d="M26,50 L20,56" id="Path" stroke="#0096E6" stroke-width="2" stroke-linecap="round"></path>
                <path d="M6,12 L6,40.225 C6,45.624 10.376,50 15.775,50 L26,50" id="Path" stroke="#0096E6" stroke-width="2" stroke-linecap="round"></path>
                <path d="M32,50 C32,46.686 34.686,44 38,44 C41.314,44 44,46.686 44,50 C44,53.314 41.314,56 38,56 C34.686,56 32,53.314 32,50 L32,50 Z" id="Fill-52" fill="#FFFFFF"></path>
                <path d="M32,50 C32,46.686 34.686,44 38,44 C41.314,44 44,46.686 44,50 C44,53.314 41.314,56 38,56 C34.686,56 32,53.314 32,50 L32,50 Z" id="Stroke-53" stroke="#0096E6" stroke-width="2"></path>
                <path d="M18,6 L24,12 M18,6 L24,0 M38,44 L38,15.775 C38,10.376 33.624,6 28.225,6 L18,6" id="Stroke-54" stroke="#0096E6" stroke-width="2" stroke-linecap="round"></path>
            </g>
        </g>
    </g>
</svg>