<?xml version="1.0" encoding="UTF-8" standalone="no"?>
<svg width="50px" height="61px" viewBox="0 0 50 61" version="1.1" xmlns="http://www.w3.org/2000/svg" xmlns:xlink="http://www.w3.org/1999/xlink">
    <!-- Generator: Sketch 40.1 (33804) - http://www.bohemiancoding.com/sketch -->
    <title>148 - Time-Tracking (interaction, communication, essential, cartoony)</title>
    <desc>Created with Sketch.</desc>
    <defs></defs>
    <g id="Page-1" stroke="none" stroke-width="1" fill="none" fill-rule="evenodd">
        <g id="Icons" transform="translate(-365.000000, -3116.000000)">
            <g id="148---Time-Tracking-(interaction,-communication,-essential,-cartoony)" transform="translate(366.000000, 3117.000000)">
                <polygon id="Fill-1178" fill="#00B868" points="24 58.36 44 58.36 44 54.36 24 54.36"></polygon>
                <polygon id="Fill-1179" fill="#FFFFFF" points="4 58.36 24 58.36 24 54.36 4 54.36"></polygon>
                <polygon id="Fill-1180" fill="#FFFFFF" points="4 4.36 24 4.36 24 0.36 4 0.36"></polygon>
                <polygon id="Fill-1181" fill="#00B868" points="22 4.36 44 4.36 44 0.36 22 0.36"></polygon>
                <polygon id="Fill-1182" fill="#00DD7F" points="7 58.36 41 58.36 41 54.36 7 54.36"></polygon>
                <polygon id="Fill-1183" fill="#00DD7F" points="7 4.36 41 4.36 41 0.36 7 0.36"></polygon>
                <path d="M35.8566,37.2643 L23.9996,29.3603 L23.9996,54.3603 L38.9996,54.3603 L38.9996,43.1383 C38.9996,40.7773 37.8206,38.5733 35.8566,37.2643" id="Fill-1185" fill="#00B868"></path>
                <path d="M12.1434,37.2643 L24.0004,29.3603 L24.0004,54.3603 L9.0004,54.3603 L9.0004,43.1383 C9.0004,40.7773 10.1794,38.5733 12.1434,37.2643" id="Fill-1186" fill="#FFFFFF"></path>
                <path d="M12.1434,21.4557 L24.0004,29.3597 L24.0004,4.3597 L9.0004,4.3597 L9.0004,15.5817 C9.0004,17.9427 10.1794,20.1467 12.1434,21.4557" id="Fill-1187" fill="#FFFFFF"></path>
                <path d="M32.8566,37.2644 L23.9996,29.3604 L15.1436,37.2644 C13.1796,38.5734 11.9996,40.7774 11.9996,43.1374 L11.9996,54.3604 L35.9996,54.3604 L35.9996,43.1374 C35.9996,40.7774 34.8206,38.5734 32.8566,37.2644" id="Fill-1188" fill="#00DD7F"></path>
                <path d="M24,4.36 L24,29.36 L35.857,21.456 C37.82,20.146 39,17.942 39,15.582 L39,4.36 L24,4.36 Z" id="Fill-1189" fill="#00B868"></path>
                <path d="M15.1434,21.4556 L24.0004,29.3596 L32.8564,21.4556 C34.8204,20.1466 36.0004,17.9426 36.0004,15.5826 L36.0004,4.3596 L12.0004,4.3596 L12.0004,15.5826 C12.0004,17.9426 13.1794,20.1466 15.1434,21.4556" id="Fill-1190" fill="#00DD7F"></path>
                <path d="M25,25.36 C25,25.912 24.552,26.36 24,26.36 C23.448,26.36 23,25.912 23,25.36 C23,24.808 23.448,24.36 24,24.36 C24.552,24.36 25,24.808 25,25.36" id="Fill-4896" fill="#000000"></path>
                <path d="M28,23.36 C28,23.912 27.552,24.36 27,24.36 C26.448,24.36 26,23.912 26,23.36 C26,22.808 26.448,22.36 27,22.36 C27.552,22.36 28,22.808 28,23.36" id="Fill-4897" fill="#000000"></path>
                <path d="M22,23.36 C22,23.912 21.552,24.36 21,24.36 C20.448,24.36 20,23.912 20,23.36 C20,22.808 20.448,22.36 21,22.36 C21.552,22.36 22,22.808 22,23.36" id="Fill-4898" fill="#000000"></path>
                <path d="M19,21.36 C19,21.912 18.552,22.36 18,22.36 C17.448,22.36 17,21.912 17,21.36 C17,20.808 17.448,20.36 18,20.36 C18.552,20.36 19,20.808 19,21.36" id="Fill-4899" fill="#000000"></path>
                <path d="M31,21.36 C31,21.912 30.552,22.36 30,22.36 C29.448,22.36 29,21.912 29,21.36 C29,20.808 29.448,20.36 30,20.36 C30.552,20.36 31,20.808 31,21.36" id="Fill-4900" fill="#000000"></path>
                <path d="M34,19.36 C34,19.912 33.552,20.36 33,20.36 C32.448,20.36 32,19.912 32,19.36 C32,18.808 32.448,18.36 33,18.36 C33.552,18.36 34,18.808 34,19.36" id="Fill-4901" fill="#000000"></path>
                <path d="M16,19.36 C16,19.912 15.552,20.36 15,20.36 C14.448,20.36 14,19.912 14,19.36 C14,18.808 14.448,18.36 15,18.36 C15.552,18.36 16,18.808 16,19.36" id="Fill-4902" fill="#000000"></path>
                <path d="M25,21.36 C25,21.912 24.552,22.36 24,22.36 C23.448,22.36 23,21.912 23,21.36 C23,20.808 23.448,20.36 24,20.36 C24.552,20.36 25,20.808 25,21.36" id="Fill-4903" fill="#000000"></path>
                <path d="M25,33.36 C25,33.912 24.552,34.36 24,34.36 C23.448,34.36 23,33.912 23,33.36 C23,32.808 23.448,32.36 24,32.36 C24.552,32.36 25,32.808 25,33.36" id="Fill-4915" fill="#000000"></path>
                <path d="M25,36.36 C25,36.912 24.552,37.36 24,37.36 C23.448,37.36 23,36.912 23,36.36 C23,35.808 23.448,35.36 24,35.36 C24.552,35.36 25,35.808 25,36.36" id="Fill-4916" fill="#000000"></path>
                <path d="M25,39.36 C25,39.912 24.552,40.36 24,40.36 C23.448,40.36 23,39.912 23,39.36 C23,38.808 23.448,38.36 24,38.36 C24.552,38.36 25,38.808 25,39.36" id="Fill-4917" fill="#000000"></path>
                <path d="M25,42.36 C25,42.912 24.552,43.36 24,43.36 C23.448,43.36 23,42.912 23,42.36 C23,41.808 23.448,41.36 24,41.36 C24.552,41.36 25,41.808 25,42.36" id="Fill-4918" fill="#000000"></path>
                <path d="M25,45.36 C25,45.912 24.552,46.36 24,46.36 C23.448,46.36 23,45.912 23,45.36 C23,44.808 23.448,44.36 24,44.36 C24.552,44.36 25,44.808 25,45.36" id="Fill-4919" fill="#000000"></path>
                <path d="M25,48.36 C25,48.912 24.552,49.36 24,49.36 C23.448,49.36 23,48.912 23,48.36 C23,47.808 23.448,47.36 24,47.36 C24.552,47.36 25,47.808 25,48.36" id="Fill-4920" fill="#000000"></path>
                <polygon id="Stroke-4953" stroke="#000000" stroke-width="2" stroke-linecap="round" points="4 58.36 44 58.36 44 54.36 4 54.36"></polygon>
                <path d="M12.1434,37.2644 L24.0004,29.3604 L35.8564,37.2644 C37.8204,38.5734 39.0004,40.7774 39.0004,43.1374 L39.0004,54.3604 L9.0004,54.3604 L9.0004,43.1374 C9.0004,40.7774 10.1794,38.5734 12.1434,37.2644 L12.1434,37.2644 Z" id="Stroke-4954" stroke="#000000" stroke-width="2" stroke-linecap="round"></path>
                <path d="M0,58.36 L4,58.36" id="Stroke-4955" stroke="#000000" stroke-width="2" stroke-linecap="round"></path>
                <path d="M44,58.36 L48,58.36" id="Stroke-4956" stroke="#000000" stroke-width="2" stroke-linecap="round"></path>
                <polygon id="Stroke-4957" stroke="#000000" stroke-width="2" stroke-linecap="round" points="4 4.36 44 4.36 44 0.36 4 0.36"></polygon>
                <path d="M12.1434,21.4556 L24.0004,29.3596 L35.8564,21.4556 C37.8204,20.1466 39.0004,17.9426 39.0004,15.5826 L39.0004,4.3596 L9.0004,4.3596 L9.0004,15.5826 C9.0004,17.9426 10.1794,20.1466 12.1434,21.4556 L12.1434,21.4556 Z" id="Stroke-4958" stroke="#000000" stroke-width="2" stroke-linecap="round"></path>
                <path d="M0,0.36 L4,0.36" id="Stroke-4959" stroke="#000000" stroke-width="2" stroke-linecap="round"></path>
                <path d="M44,0.36 L48,0.36" id="Stroke-4960" stroke="#000000" stroke-width="2" stroke-linecap="round"></path>
            </g>
        </g>
    </g>
</svg>